<svg width="80" height="100" xmlns="http://www.w3.org/2000/svg">
 <style type="text/css">.st0{fill:none;stroke:#43484D;stroke-width:4;stroke-linecap:round;stroke-miterlimit:10;}</style>

 <g>
  <title>background</title>
  <rect fill="none" id="canvas_background" height="102" width="82" y="-1" x="-1"/>
 </g>
 <g>
  <title>Layer 1</title>
  <g stroke="null" id="svg_1">
   <path stroke="null" id="svg_2" d="m53.176538,67.495474c3.960883,-4.206143 6.337413,-9.858148 6.337413,-16.03592c0,-13.012755 -10.694384,-23.659555 -23.765298,-23.659555s-23.765298,10.6468 -23.765298,23.659555s10.694384,23.659555 23.765298,23.659555c5.017119,0 9.638149,-1.577304 13.334973,-4.074701l17.031797,16.956014c0.528118,0.525768 1.188265,0.788652 1.848412,0.788652s1.320294,-0.262884 1.848412,-0.788652c1.056235,-1.051536 1.056235,-2.628839 0,-3.680375l-16.635709,-16.824572zm-17.295856,2.365955c-10.166266,0 -18.484121,-8.280844 -18.484121,-18.401876s8.317854,-18.401876 18.484121,-18.401876s18.484121,8.280844 18.484121,18.401876s-8.317854,18.401876 -18.484121,18.401876z"/>
  </g>
 </g>
</svg>